<svg xmlns="http://www.w3.org/2000/svg" xmlns:xlink="http://www.w3.org/1999/xlink" width="300" zoomAndPan="magnify" viewBox="0 0 224.87999 60" height="80" preserveAspectRatio="xMidYMid meet" version="1.0"><defs><g/></defs><g fill="#ffffff" fill-opacity="1"><g transform="translate(6.124857, 39.7448)"><g><path d="M 15.640625 0 L 13.90625 -4.96875 L 6.5 -4.96875 L 4.78125 0 L 0.703125 0 L 7.796875 -19.453125 L 12.59375 -19.453125 L 19.671875 0 Z M 10.203125 -16.453125 L 10.109375 -16.140625 C 10.023438 -15.816406 9.914062 -15.441406 9.78125 -15.015625 C 9.65625 -14.585938 8.863281 -12.257812 7.40625 -8.03125 L 13 -8.03125 L 11.078125 -13.625 L 10.484375 -15.5 Z M 10.203125 -16.453125 "/></g></g></g><g fill="#ffffff" fill-opacity="1"><g transform="translate(28.137492, 39.7448)"><g><path d="M 1.890625 0 L 1.890625 -19.453125 L 5.96875 -19.453125 L 5.96875 -3.140625 L 16.390625 -3.140625 L 16.390625 0 Z M 1.890625 0 "/></g></g></g><g fill="#ffffff" fill-opacity="1"><g transform="translate(47.005047, 39.7448)"><g><path d="M 1.890625 0 L 1.890625 -19.453125 L 5.96875 -19.453125 L 5.96875 -3.140625 L 16.390625 -3.140625 L 16.390625 0 Z M 1.890625 0 "/></g></g></g><g fill="#ffffff" fill-opacity="1"><g transform="translate(65.872602, 39.7448)"><g><path d="M 1.109375 -5.640625 L 1.109375 -9.015625 L 8.28125 -9.015625 L 8.28125 -5.640625 Z M 1.109375 -5.640625 "/></g></g></g><g fill="#ffffff" fill-opacity="1"><g transform="translate(76.89125, 39.7448)"><g><path d="M 17.75 -5.609375 C 17.75 -3.703125 17.039062 -2.242188 15.625 -1.234375 C 14.21875 -0.222656 12.144531 0.28125 9.40625 0.28125 C 6.914062 0.28125 4.960938 -0.160156 3.546875 -1.046875 C 2.128906 -1.929688 1.21875 -3.269531 0.8125 -5.0625 L 4.75 -5.71875 C 5.007812 -4.6875 5.523438 -3.9375 6.296875 -3.46875 C 7.078125 -3.007812 8.148438 -2.78125 9.515625 -2.78125 C 12.359375 -2.78125 13.78125 -3.644531 13.78125 -5.375 C 13.78125 -5.925781 13.617188 -6.378906 13.296875 -6.734375 C 12.972656 -7.085938 12.515625 -7.382812 11.921875 -7.625 C 11.328125 -7.863281 10.1875 -8.15625 8.5 -8.5 C 7.050781 -8.84375 6.039062 -9.117188 5.46875 -9.328125 C 4.894531 -9.535156 4.378906 -9.773438 3.921875 -10.046875 C 3.460938 -10.328125 3.070312 -10.664062 2.75 -11.0625 C 2.425781 -11.457031 2.171875 -11.921875 1.984375 -12.453125 C 1.804688 -12.992188 1.71875 -13.609375 1.71875 -14.296875 C 1.71875 -16.054688 2.378906 -17.398438 3.703125 -18.328125 C 5.023438 -19.265625 6.945312 -19.734375 9.46875 -19.734375 C 11.875 -19.734375 13.679688 -19.351562 14.890625 -18.59375 C 16.109375 -17.84375 16.890625 -16.597656 17.234375 -14.859375 L 13.296875 -14.328125 C 13.085938 -15.160156 12.671875 -15.789062 12.046875 -16.21875 C 11.429688 -16.644531 10.546875 -16.859375 9.390625 -16.859375 C 6.921875 -16.859375 5.6875 -16.082031 5.6875 -14.53125 C 5.6875 -14.03125 5.816406 -13.617188 6.078125 -13.296875 C 6.335938 -12.972656 6.722656 -12.695312 7.234375 -12.46875 C 7.753906 -12.238281 8.800781 -11.957031 10.375 -11.625 C 12.25 -11.226562 13.585938 -10.859375 14.390625 -10.515625 C 15.191406 -10.179688 15.828125 -9.789062 16.296875 -9.34375 C 16.765625 -8.90625 17.125 -8.375 17.375 -7.75 C 17.625 -7.125 17.75 -6.410156 17.75 -5.609375 Z M 17.75 -5.609375 "/></g></g></g><g fill="#ffffff" fill-opacity="1"><g transform="translate(97.345139, 39.7448)"><g><path d="M 10.671875 -16.296875 L 10.671875 0 L 6.59375 0 L 6.59375 -16.296875 L 0.3125 -16.296875 L 0.3125 -19.453125 L 16.96875 -19.453125 L 16.96875 -16.296875 Z M 10.671875 -16.296875 "/></g></g></g><g fill="#ffffff" fill-opacity="1"><g transform="translate(116.212694, 39.7448)"><g><path d="M 15.640625 0 L 13.90625 -4.96875 L 6.5 -4.96875 L 4.78125 0 L 0.703125 0 L 7.796875 -19.453125 L 12.59375 -19.453125 L 19.671875 0 Z M 10.203125 -16.453125 L 10.109375 -16.140625 C 10.023438 -15.816406 9.914062 -15.441406 9.78125 -15.015625 C 9.65625 -14.585938 8.863281 -12.257812 7.40625 -8.03125 L 13 -8.03125 L 11.078125 -13.625 L 10.484375 -15.5 Z M 10.203125 -16.453125 "/></g></g></g><g fill="#ffffff" fill-opacity="1"><g transform="translate(138.225329, 39.7448)"><g><path d="M 15.25 0 L 10.734375 -7.390625 L 5.96875 -7.390625 L 5.96875 0 L 1.890625 0 L 1.890625 -19.453125 L 11.609375 -19.453125 C 13.921875 -19.453125 15.707031 -18.953125 16.96875 -17.953125 C 18.226562 -16.953125 18.859375 -15.519531 18.859375 -13.65625 C 18.859375 -12.289062 18.472656 -11.113281 17.703125 -10.125 C 16.929688 -9.132812 15.890625 -8.484375 14.578125 -8.171875 L 19.828125 0 Z M 14.765625 -13.484375 C 14.765625 -15.347656 13.566406 -16.28125 11.171875 -16.28125 L 5.96875 -16.28125 L 5.96875 -10.546875 L 11.296875 -10.546875 C 12.429688 -10.546875 13.289062 -10.800781 13.875 -11.3125 C 14.46875 -11.832031 14.765625 -12.554688 14.765625 -13.484375 Z M 14.765625 -13.484375 "/></g></g></g><path stroke-linecap="butt" transform="matrix(0, -0.7496, 0.7496, 0, 163.592779, 52.237601)" fill="none" stroke-linejoin="miter" d="M -0.000907149 0.501563 L 50.2238 0.501563 " stroke="#ffffff" stroke-width="1" stroke-opacity="1" stroke-miterlimit="4"/><path fill="#ffffff" d="M 172.652344 16.183594 C 172.433594 16.269531 172.183594 16.542969 172.089844 16.789062 C 171.988281 17.050781 171.917969 19.511719 171.917969 22.648438 C 171.917969 27.597656 171.945312 28.082031 172.222656 28.335938 C 172.390625 28.488281 174.316406 29.90625 176.503906 31.488281 C 178.691406 33.070312 180.503906 34.433594 180.535156 34.511719 C 180.5625 34.59375 180.195312 35.890625 179.71875 37.390625 C 179.238281 38.890625 178.871094 40.140625 178.902344 40.171875 C 178.933594 40.203125 179.632812 39.742188 180.453125 39.144531 L 181.941406 38.058594 L 182.550781 36.242188 C 182.886719 35.246094 183.164062 34.21875 183.164062 33.964844 C 183.164062 33.402344 182.984375 33.253906 178.015625 29.675781 L 174.339844 27.027344 L 174.339844 18.433594 L 179.035156 18.386719 L 183.734375 18.339844 L 183.945312 17.726562 C 184.0625 17.390625 184.210938 16.867188 184.277344 16.558594 L 184.402344 16.003906 L 178.722656 16.015625 C 175.597656 16.019531 172.867188 16.097656 172.652344 16.183594 M 185.4375 19.761719 C 184.765625 21.832031 184.019531 24.171875 183.769531 24.957031 L 183.320312 26.382812 L 180.300781 26.382812 C 178.640625 26.382812 177.28125 26.441406 177.285156 26.511719 C 177.285156 26.585938 177.976562 27.128906 178.820312 27.722656 L 180.355469 28.804688 L 182.417969 28.804688 C 183.914062 28.804688 184.570312 28.738281 184.8125 28.5625 C 185.035156 28.398438 185.652344 26.742188 186.722656 23.417969 L 188.304688 18.511719 L 194.464844 18.46875 L 200.625 18.421875 L 200.671875 21.40625 L 200.71875 24.394531 L 202.96875 24.394531 L 202.96875 20.550781 C 202.96875 17.09375 202.9375 16.675781 202.660156 16.398438 C 202.375 16.113281 201.765625 16.085938 194.5 16.042969 L 186.652344 15.996094 Z M 189.648438 21.0625 C 189.609375 21.183594 189.351562 21.988281 189.078125 22.851562 L 188.582031 24.421875 L 189.167969 26.308594 C 189.519531 27.441406 189.898438 28.320312 190.113281 28.503906 C 190.433594 28.777344 190.957031 28.804688 195.550781 28.804688 L 200.632812 28.804688 L 200.632812 41.082031 L 199.898438 41.542969 C 199.496094 41.792969 199.132812 42.027344 199.09375 42.0625 C 198.949219 42.183594 199.65625 44.203125 199.839844 44.199219 C 199.945312 44.195312 200.636719 43.839844 201.378906 43.410156 C 202.25 42.902344 202.785156 42.46875 202.894531 42.183594 C 202.992188 41.921875 203.042969 38.699219 203.015625 34.109375 L 202.96875 26.46875 L 197.3125 26.425781 L 191.660156 26.378906 L 190.777344 23.613281 C 190.292969 22.09375 189.859375 20.847656 189.8125 20.847656 C 189.765625 20.847656 189.691406 20.945312 189.648438 21.0625 M 171.921875 36.375 C 171.921875 40.390625 171.980469 41.976562 172.136719 42.277344 C 172.269531 42.53125 173.496094 43.351562 175.335938 44.414062 L 178.320312 46.136719 L 182.75 42.910156 C 185.183594 41.132812 187.269531 39.644531 187.382812 39.601562 C 187.496094 39.558594 188.636719 40.289062 189.914062 41.230469 C 191.195312 42.171875 192.265625 42.882812 192.292969 42.816406 C 192.320312 42.746094 192.101562 41.9375 191.808594 41.015625 L 191.269531 39.339844 L 189.609375 38.109375 C 188.542969 37.316406 187.789062 36.878906 187.496094 36.878906 C 187.179688 36.878906 185.699219 37.859375 182.613281 40.113281 L 178.179688 43.34375 L 176.304688 42.257812 L 174.425781 41.167969 L 174.378906 36.816406 L 174.335938 32.464844 L 173.226562 31.671875 C 172.613281 31.238281 172.070312 30.882812 172.015625 30.882812 C 171.960938 30.882812 171.917969 33.351562 171.921875 36.375 M 193.957031 31.851562 C 192.121094 33.160156 191.8125 33.460938 191.8125 33.953125 C 191.8125 34.289062 194.796875 43.816406 195.027344 44.222656 C 195.0625 44.28125 193.378906 45.3125 191.285156 46.519531 L 187.476562 48.710938 L 185.277344 47.433594 C 184.066406 46.730469 182.910156 46.070312 182.707031 45.960938 C 182.390625 45.796875 182.199219 45.871094 181.351562 46.476562 C 180.542969 47.054688 180.40625 47.222656 180.59375 47.394531 C 180.992188 47.761719 187.242188 51.292969 187.488281 51.292969 C 187.722656 51.292969 197.25 45.871094 197.640625 45.515625 C 197.804688 45.371094 197.453125 44.109375 196.128906 40.058594 C 195.179688 37.160156 194.40625 34.707031 194.40625 34.601562 C 194.40625 34.5 195.417969 33.691406 196.65625 32.804688 C 197.894531 31.917969 198.949219 31.121094 199 31.035156 C 199.054688 30.949219 198.28125 30.882812 197.210938 30.882812 L 195.324219 30.882812 Z M 193.957031 31.851562 " fill-opacity="1" fill-rule="evenodd"/></svg>
