<svg xmlns="http://www.w3.org/2000/svg" xmlns:xlink="http://www.w3.org/1999/xlink" width="300" zoomAndPan="magnify" viewBox="0 0 224.87999 60" height="80" preserveAspectRatio="xMidYMid meet" version="1.0"><defs><g/><clipPath id="eeb4daa17c"><path d="M 0 0.015625 L 224.761719 0.015625 L 224.761719 59.984375 L 0 59.984375 Z M 0 0.015625 " clip-rule="nonzero"/></clipPath><clipPath id="610e226ab8"><path d="M 0.0390625 7 L 20 7 L 20 27 L 0.0390625 27 Z M 0.0390625 7 " clip-rule="nonzero"/></clipPath><clipPath id="8c13875c89"><rect x="0" width="155" y="0" height="33"/></clipPath></defs><g transform="matrix(1, 0, 0, 1, 5, 13)"><g clip-path="url(#8c13875c89)"><g clip-path="url(#610e226ab8)"><g fill="#000000" fill-opacity="1"><g transform="translate(0.139197, 26.729302)"><g><path d="M 15.640625 0 L 13.90625 -4.96875 L 6.5 -4.96875 L 4.78125 0 L 0.703125 0 L 7.796875 -19.453125 L 12.59375 -19.453125 L 19.671875 0 Z M 10.203125 -16.453125 L 10.109375 -16.140625 C 10.023438 -15.816406 9.914062 -15.441406 9.78125 -15.015625 C 9.65625 -14.585938 8.863281 -12.257812 7.40625 -8.03125 L 13 -8.03125 L 11.078125 -13.625 L 10.484375 -15.5 Z M 10.203125 -16.453125 "/></g></g></g></g><g fill="#000000" fill-opacity="1"><g transform="translate(22.160582, 26.729302)"><g><path d="M 1.890625 0 L 1.890625 -19.453125 L 5.96875 -19.453125 L 5.96875 -3.140625 L 16.390625 -3.140625 L 16.390625 0 Z M 1.890625 0 "/></g></g></g><g fill="#000000" fill-opacity="1"><g transform="translate(41.035537, 26.729302)"><g><path d="M 1.890625 0 L 1.890625 -19.453125 L 5.96875 -19.453125 L 5.96875 -3.140625 L 16.390625 -3.140625 L 16.390625 0 Z M 1.890625 0 "/></g></g></g><g fill="#000000" fill-opacity="1"><g transform="translate(59.910493, 26.729302)"><g><path d="M 1.109375 -5.640625 L 1.109375 -9.015625 L 8.28125 -9.015625 L 8.28125 -5.640625 Z M 1.109375 -5.640625 "/></g></g></g><g fill="#000000" fill-opacity="1"><g transform="translate(70.933181, 26.729302)"><g><path d="M 17.75 -5.609375 C 17.75 -3.703125 17.039062 -2.242188 15.625 -1.234375 C 14.21875 -0.222656 12.144531 0.28125 9.40625 0.28125 C 6.914062 0.28125 4.960938 -0.160156 3.546875 -1.046875 C 2.128906 -1.929688 1.21875 -3.269531 0.8125 -5.0625 L 4.75 -5.71875 C 5.007812 -4.6875 5.523438 -3.9375 6.296875 -3.46875 C 7.078125 -3.007812 8.148438 -2.78125 9.515625 -2.78125 C 12.359375 -2.78125 13.78125 -3.644531 13.78125 -5.375 C 13.78125 -5.925781 13.617188 -6.378906 13.296875 -6.734375 C 12.972656 -7.085938 12.515625 -7.382812 11.921875 -7.625 C 11.328125 -7.863281 10.1875 -8.15625 8.5 -8.5 C 7.050781 -8.84375 6.039062 -9.117188 5.46875 -9.328125 C 4.894531 -9.535156 4.378906 -9.773438 3.921875 -10.046875 C 3.460938 -10.328125 3.070312 -10.664062 2.75 -11.0625 C 2.425781 -11.457031 2.171875 -11.921875 1.984375 -12.453125 C 1.804688 -12.992188 1.71875 -13.609375 1.71875 -14.296875 C 1.71875 -16.054688 2.378906 -17.398438 3.703125 -18.328125 C 5.023438 -19.265625 6.945312 -19.734375 9.46875 -19.734375 C 11.875 -19.734375 13.679688 -19.351562 14.890625 -18.59375 C 16.109375 -17.84375 16.890625 -16.597656 17.234375 -14.859375 L 13.296875 -14.328125 C 13.085938 -15.160156 12.671875 -15.789062 12.046875 -16.21875 C 11.429688 -16.644531 10.546875 -16.859375 9.390625 -16.859375 C 6.921875 -16.859375 5.6875 -16.082031 5.6875 -14.53125 C 5.6875 -14.03125 5.816406 -13.617188 6.078125 -13.296875 C 6.335938 -12.972656 6.722656 -12.695312 7.234375 -12.46875 C 7.753906 -12.238281 8.800781 -11.957031 10.375 -11.625 C 12.25 -11.226562 13.585938 -10.859375 14.390625 -10.515625 C 15.191406 -10.179688 15.828125 -9.789062 16.296875 -9.34375 C 16.765625 -8.90625 17.125 -8.375 17.375 -7.75 C 17.625 -7.125 17.75 -6.410156 17.75 -5.609375 Z M 17.75 -5.609375 "/></g></g></g><g fill="#000000" fill-opacity="1"><g transform="translate(91.395152, 26.729302)"><g><path d="M 10.671875 -16.296875 L 10.671875 0 L 6.59375 0 L 6.59375 -16.296875 L 0.3125 -16.296875 L 0.3125 -19.453125 L 16.96875 -19.453125 L 16.96875 -16.296875 Z M 10.671875 -16.296875 "/></g></g></g><g fill="#000000" fill-opacity="1"><g transform="translate(110.270114, 26.729302)"><g><path d="M 15.640625 0 L 13.90625 -4.96875 L 6.5 -4.96875 L 4.78125 0 L 0.703125 0 L 7.796875 -19.453125 L 12.59375 -19.453125 L 19.671875 0 Z M 10.203125 -16.453125 L 10.109375 -16.140625 C 10.023438 -15.816406 9.914062 -15.441406 9.78125 -15.015625 C 9.65625 -14.585938 8.863281 -12.257812 7.40625 -8.03125 L 13 -8.03125 L 11.078125 -13.625 L 10.484375 -15.5 Z M 10.203125 -16.453125 "/></g></g></g><g fill="#000000" fill-opacity="1"><g transform="translate(132.291499, 26.729302)"><g><path d="M 15.25 0 L 10.734375 -7.390625 L 5.96875 -7.390625 L 5.96875 0 L 1.890625 0 L 1.890625 -19.453125 L 11.609375 -19.453125 C 13.921875 -19.453125 15.707031 -18.953125 16.96875 -17.953125 C 18.226562 -16.953125 18.859375 -15.519531 18.859375 -13.65625 C 18.859375 -12.289062 18.472656 -11.113281 17.703125 -10.125 C 16.929688 -9.132812 15.890625 -8.484375 14.578125 -8.171875 L 19.828125 0 Z M 14.765625 -13.484375 C 14.765625 -15.347656 13.566406 -16.28125 11.171875 -16.28125 L 5.96875 -16.28125 L 5.96875 -10.546875 L 11.296875 -10.546875 C 12.429688 -10.546875 13.289062 -10.800781 13.875 -11.3125 C 14.46875 -11.832031 14.765625 -12.554688 14.765625 -13.484375 Z M 14.765625 -13.484375 "/></g></g></g></g></g><path stroke-linecap="butt" transform="matrix(0, -0.7496, 0.7496, 0, 163.376359, 51.925799)" fill="none" stroke-linejoin="miter" d="M 0.0000234939 0.498454 L 58.510401 0.498454 " stroke="#000000" stroke-width="1" stroke-opacity="1" stroke-miterlimit="4"/><path fill="#000000" d="M 173.964844 9.664062 C 173.710938 9.765625 173.417969 10.085938 173.308594 10.371094 C 173.191406 10.675781 173.109375 13.554688 173.109375 17.214844 C 173.109375 22.996094 173.136719 23.5625 173.464844 23.859375 C 173.660156 24.035156 175.910156 25.691406 178.464844 27.539062 C 181.019531 29.386719 183.136719 30.976562 183.171875 31.074219 C 183.207031 31.167969 182.777344 32.679688 182.21875 34.429688 C 181.660156 36.183594 181.230469 37.648438 181.265625 37.683594 C 181.304688 37.71875 182.117188 37.179688 183.074219 36.480469 L 184.816406 35.214844 L 185.527344 33.09375 C 185.921875 31.925781 186.242188 30.726562 186.242188 30.429688 C 186.242188 29.773438 186.03125 29.601562 180.230469 25.421875 L 175.9375 22.332031 L 175.9375 12.289062 L 181.421875 12.238281 L 186.90625 12.183594 L 187.15625 11.46875 C 187.289062 11.074219 187.464844 10.460938 187.542969 10.105469 L 187.6875 9.453125 L 181.054688 9.46875 C 177.40625 9.476562 174.214844 9.5625 173.964844 9.664062 M 188.894531 13.84375 C 188.113281 16.261719 187.238281 18.992188 186.949219 19.910156 L 186.425781 21.578125 L 182.898438 21.578125 C 180.957031 21.578125 179.371094 21.644531 179.375 21.730469 C 179.375 21.8125 180.183594 22.449219 181.171875 23.144531 L 182.964844 24.40625 L 185.371094 24.40625 C 187.117188 24.40625 187.886719 24.328125 188.167969 24.121094 C 188.429688 23.929688 189.148438 21.996094 190.398438 18.113281 L 192.246094 12.382812 L 199.441406 12.332031 L 206.636719 12.277344 L 206.746094 19.253906 L 209.375 19.253906 L 209.375 14.765625 C 209.375 10.726562 209.339844 10.242188 209.015625 9.917969 C 208.679688 9.582031 207.96875 9.550781 199.484375 9.5 L 190.316406 9.441406 Z M 193.816406 15.363281 C 193.769531 15.503906 193.46875 16.441406 193.148438 17.449219 L 192.570312 19.285156 L 193.257812 21.492188 C 193.667969 22.8125 194.109375 23.839844 194.355469 24.050781 C 194.730469 24.371094 195.347656 24.40625 200.710938 24.40625 L 206.648438 24.40625 L 206.648438 38.746094 L 205.789062 39.28125 C 205.316406 39.574219 204.890625 39.847656 204.847656 39.886719 C 204.679688 40.03125 205.503906 42.386719 205.71875 42.382812 C 205.839844 42.382812 206.648438 41.96875 207.515625 41.460938 C 208.535156 40.871094 209.160156 40.363281 209.285156 40.03125 C 209.402344 39.726562 209.457031 35.960938 209.425781 30.601562 L 209.375 21.679688 L 196.164062 21.570312 L 195.136719 18.34375 C 194.570312 16.566406 194.0625 15.113281 194.007812 15.113281 C 193.949219 15.113281 193.867188 15.226562 193.816406 15.363281 M 173.109375 33.246094 C 173.113281 37.9375 173.179688 39.789062 173.363281 40.140625 C 173.515625 40.433594 174.953125 41.394531 177.101562 42.632812 L 180.585938 44.648438 L 185.757812 40.878906 C 188.601562 38.804688 191.039062 37.0625 191.167969 37.011719 C 191.300781 36.964844 192.632812 37.820312 194.128906 38.917969 C 195.625 40.015625 196.875 40.851562 196.90625 40.769531 C 196.9375 40.6875 196.683594 39.742188 196.339844 38.667969 L 195.710938 36.710938 L 193.773438 35.273438 C 192.523438 34.347656 191.644531 33.835938 191.300781 33.835938 C 190.933594 33.835938 189.203125 34.980469 185.597656 37.609375 L 180.421875 41.386719 L 178.230469 40.117188 L 176.039062 38.84375 L 175.929688 28.679688 L 174.632812 27.753906 C 173.921875 27.246094 173.285156 26.832031 173.222656 26.832031 C 173.160156 26.832031 173.109375 29.71875 173.109375 33.246094 M 198.847656 27.964844 C 196.707031 29.488281 196.34375 29.84375 196.34375 30.421875 C 196.34375 30.808594 199.832031 41.9375 200.101562 42.410156 C 200.140625 42.480469 198.171875 43.6875 195.726562 45.09375 L 191.28125 47.652344 L 188.710938 46.164062 C 187.296875 45.34375 185.945312 44.570312 185.710938 44.445312 C 185.339844 44.25 185.113281 44.335938 184.125 45.042969 C 183.183594 45.71875 183.019531 45.917969 183.242188 46.121094 C 183.707031 46.546875 191.007812 50.671875 191.292969 50.671875 C 191.566406 50.671875 202.695312 44.339844 203.152344 43.921875 C 203.339844 43.753906 202.933594 42.28125 201.386719 37.550781 C 200.277344 34.164062 199.375 31.296875 199.375 31.175781 C 199.375 31.054688 200.554688 30.109375 202 29.074219 C 203.445312 28.039062 204.679688 27.113281 204.738281 27.011719 C 204.804688 26.910156 203.898438 26.832031 202.648438 26.832031 L 200.445312 26.832031 Z M 198.847656 27.964844 " fill-opacity="1" fill-rule="evenodd"/></svg>
